PathFileType  4	(X/Y/Z) C:\Users\wagnerel85475\Documents\Thesis\opencap-core\Data\3375ffbc-daeb-4a43-b4f7-ac9899cd4c71\MarkerData\PreAugmentation
DataRate	CameraRate	NumFrames	NumMarkers	Units	OrigDataRate	OrigDataStartFrame	OrigNumFrames
60.0	60.0	15	20	m	60.0	412	822
Frame#	Time	Neck			RShoulder			RElbow			RWrist			LShoulder			LElbow			LWrist			midHip			RHip			RKnee			RAnkle			LHip			LKnee			LAnkle			LBigToe			LSmallToe			LHeel			RBigToe			RSmallToe			RHeel			
		X1	Y1	Z1	X2	Y2	Z2	X3	Y3	Z3	X4	Y4	Z4	X5	Y5	Z5	X6	Y6	Z6	X7	Y7	Z7	X8	Y8	Z8	X9	Y9	Z9	X10	Y10	Z10	X11	Y11	Z11	X12	Y12	Z12	X13	Y13	Z13	X14	Y14	Z14	X15	Y15	Z15	X16	Y16	Z16	X17	Y17	Z17	X18	Y18	Z18	X19	Y19	Z19	X20	Y20	Z20	

412	6.8500000	0.7255600	1.1709800	-0.0365200	0.7216800	1.1723000	0.1418200	0.9483500	1.0094800	0.1733700	1.2803200	1.0364300	0.0652900	0.7365800	1.1739900	-0.2199500	1.0466100	1.0040100	-0.2589600	1.3305500	1.0431600	-0.1274100	0.4655700	0.6528800	-0.0450400	0.4615400	0.6470500	0.0654600	0.7306400	0.2958800	0.1863900	0.5070800	-0.1931300	0.1321000	0.4567900	0.6576200	-0.1637500	0.7222100	0.3107900	-0.2752500	0.5289000	-0.1723900	-0.2488600	0.7348100	-0.2229100	-0.3105100	0.6613600	-0.2236200	-0.3446900	0.4604400	-0.2268800	-0.2169100	0.6912400	-0.2334900	0.2377800	0.6465100	-0.2300400	0.2560800	0.5017100	-0.2319100	0.0997600
413	6.8666667	0.7350100	1.1518500	-0.0332800	0.7223000	1.1426400	0.1414400	0.9723200	0.9981600	0.1820100	1.2886900	1.0117300	0.0623700	0.7375400	1.1607200	-0.2197400	1.0523500	0.9813100	-0.2541900	1.3385800	1.0127100	-0.1166400	0.4439300	0.6341600	-0.0521100	0.4520800	0.6261300	0.0620500	0.7307900	0.2918000	0.1869500	0.5070700	-0.1923200	0.1322000	0.4350600	0.6379600	-0.1625700	0.7303100	0.3064700	-0.2785400	0.5287500	-0.1723600	-0.2490500	0.7516400	-0.2170500	-0.3102600	0.6707100	-0.2203600	-0.3402700	0.4504500	-0.2344900	-0.2215000	0.6910700	-0.2334200	0.2373500	0.6541900	-0.2306500	0.2506800	0.5012800	-0.2318700	0.0997300
414	6.8833333	0.7365000	1.1328500	-0.0328100	0.7404500	1.1280900	0.1406800	1.0555300	0.9545000	0.2020100	1.2863200	0.9973900	0.0615500	0.7381500	1.1314200	-0.2196100	1.0315000	0.9721400	-0.2439100	1.3389500	1.0019700	-0.1170300	0.4252400	0.6177500	-0.0526100	0.4461600	0.6143400	0.0651800	0.7501200	0.2917900	0.1836500	0.5179500	-0.1894700	0.1350800	0.4162100	0.6223800	-0.1634800	0.7305000	0.3033100	-0.2786200	0.5288700	-0.1725000	-0.2489000	0.7527600	-0.2166100	-0.3103700	0.6705500	-0.2206200	-0.3407100	0.4486400	-0.2386400	-0.2217700	0.6912200	-0.2334700	0.2377700	0.6544200	-0.2308100	0.2508300	0.5116200	-0.2285600	0.0949100
415	6.9000000	0.7456800	1.1052400	-0.0292500	0.7530500	1.0927200	0.1515500	0.9905300	0.9336100	0.1814400	1.2893200	0.9665900	0.0626400	0.7477100	1.1096200	-0.2155800	1.0526700	0.9491500	-0.2539800	1.3469900	0.9703900	-0.1136300	0.4240100	0.6022000	-0.0515700	0.4433600	0.5993700	0.0663100	0.7586600	0.2897800	0.1794900	0.5073900	-0.1962100	0.1314500	0.4253200	0.6073000	-0.1589300	0.7297300	0.3035100	-0.2782700	0.5287600	-0.1724600	-0.2490400	0.7521100	-0.2171300	-0.3102700	0.6803300	-0.2201300	-0.3432700	0.4488200	-0.2351800	-0.2226600	0.6913100	-0.2333100	0.2373500	0.6543000	-0.2306200	0.2506400	0.5109700	-0.2286600	0.0948400
416	6.9166667	0.7472800	1.0812100	-0.0292000	0.7413300	1.0759400	0.1409200	1.0057400	0.9144600	0.1853500	1.3022700	0.9419400	0.0676300	0.7576600	1.0905700	-0.2117100	1.0269200	0.9248700	-0.2336000	1.3469200	0.9513900	-0.1137500	0.3926100	0.5827500	-0.0456100	0.4400800	0.5883900	0.0671900	0.7426900	0.2821200	0.1883300	0.5075800	-0.1970200	0.1313600	0.4065400	0.5895800	-0.1585000	0.7398100	0.3019800	-0.2829500	0.5289600	-0.1726500	-0.2488700	0.7524300	-0.2203800	-0.3109700	0.6707500	-0.2276600	-0.3406000	0.4581800	-0.2392800	-0.2263600	0.7093700	-0.2269300	0.2359000	0.6546900	-0.2307300	0.2507800	0.5115100	-0.2287200	0.0948700
417	6.9333333	0.7561600	1.0545700	-0.0256500	0.7711200	1.0499600	0.1506700	1.0093800	0.8855700	0.1873200	1.3037900	0.9197400	0.0617900	0.7586000	1.0545300	-0.2113500	1.0559900	0.9065500	-0.2478500	1.3695700	0.9232900	-0.1038500	0.3921100	0.5710000	-0.0449400	0.4200500	0.5706000	0.0690100	0.7498000	0.2807500	0.1852100	0.5179200	-0.1961600	0.1351900	0.3942900	0.5753500	-0.1613900	0.7390700	0.3021500	-0.2824200	0.5287700	-0.1726600	-0.2490100	0.7521600	-0.2171800	-0.3101700	0.6801500	-0.2211700	-0.3368700	0.4484600	-0.2390100	-0.2232300	0.7013700	-0.2299000	0.2399900	0.6544000	-0.2306500	0.2506100	0.5111600	-0.2314700	0.0955600
418	6.9500000	0.7650500	1.0310700	-0.0295400	0.7703100	1.0188900	0.1428400	1.0128900	0.8668800	0.1810300	1.3280400	0.8937400	0.0589300	0.7775800	1.0403400	-0.2033900	1.0242100	0.8760500	-0.2311900	1.3619000	0.9016500	-0.1073200	0.3729800	0.5465500	-0.0453400	0.4123600	0.5514000	0.0725100	0.7582200	0.2799200	0.1802000	0.5180500	-0.1969700	0.1351200	0.3854600	0.5579400	-0.1666900	0.7395600	0.2987100	-0.2825200	0.5290100	-0.1727200	-0.2488400	0.7528700	-0.2164800	-0.3104100	0.6799500	-0.2203400	-0.3437900	0.4573300	-0.2356500	-0.2191700	0.6995600	-0.2307300	0.2331800	0.6546700	-0.2308700	0.2507500	0.5023600	-0.2346900	0.1002500
419	6.9666667	0.7656500	1.0002900	-0.0293000	0.7817200	0.9989200	0.1537800	1.0082300	0.8473000	0.1802200	1.3243600	0.8739800	0.0570100	0.7871600	1.0048400	-0.1994100	1.0422500	0.8600700	-0.2405100	1.3691200	0.8709600	-0.1109700	0.3723000	0.5234300	-0.0443100	0.4206800	0.5299500	0.0689500	0.7684100	0.2808300	0.1827800	0.5183000	-0.1925100	0.1346700	0.3839500	0.5341900	-0.1653700	0.7383600	0.3023500	-0.2815800	0.5287700	-0.1725700	-0.2490100	0.7610800	-0.2136800	-0.3140300	0.6803900	-0.2240000	-0.3438500	0.4584400	-0.2319000	-0.2188700	0.7093800	-0.2270900	0.2354300	0.6642800	-0.2306000	0.2526500	0.5109000	-0.2285500	0.0951100
420	6.9833333	0.7665200	0.9801900	-0.0291100	0.7978400	0.9699500	0.1449400	1.0128800	0.8133700	0.1811200	1.3431700	0.8448900	0.0648500	0.7968000	0.9876300	-0.1953300	1.0322400	0.8265100	-0.2349200	1.3621900	0.8543000	-0.1147700	0.3720900	0.5119100	-0.0442100	0.4101600	0.5165700	0.0737200	0.7683300	0.2780400	0.1825500	0.5185000	-0.1933000	0.1344900	0.3759200	0.5216000	-0.1697300	0.7476800	0.3040000	-0.2784700	0.5289900	-0.1725600	-0.2488500	0.7618600	-0.2132000	-0.3142200	0.6798100	-0.2204500	-0.3438300	0.4570600	-0.2280900	-0.2192000	0.7014900	-0.2302000	0.2404800	0.6645000	-0.2309200	0.2529200	0.5116400	-0.2285400	0.0949700
421	7.0000000	0.7762100	0.9451500	-0.0258600	0.8066700	0.9420800	0.1403900	1.0158000	0.7988600	0.1759700	1.3308900	0.8238200	0.0529700	0.7972600	0.9606600	-0.1953700	1.0366200	0.8067600	-0.2370400	1.3721200	0.8215200	-0.1121900	0.3725700	0.4991800	-0.0441600	0.4026300	0.4997000	0.0784000	0.7767400	0.2827500	0.1783300	0.5185500	-0.1924100	0.1345500	0.3633700	0.5062400	-0.1731500	0.7388200	0.2952300	-0.2817400	0.5289300	-0.1725600	-0.2490100	0.7613500	-0.2138500	-0.3141700	0.6813000	-0.2227500	-0.3504600	0.4585100	-0.2318400	-0.2187900	0.7012700	-0.2331700	0.2406900	0.6643000	-0.2308200	0.2527400	0.5203200	-0.2223400	0.0897700
422	7.0166667	0.7852800	0.9268700	-0.0297000	0.8239000	0.9176500	0.1389700	1.0221600	0.7642200	0.1840500	1.3435900	0.7913100	0.0647200	0.8150800	0.9382600	-0.1950800	1.0750600	0.7666400	-0.2551000	1.3765800	0.8018100	-0.1156200	0.3624900	0.4812400	-0.0400300	0.3925800	0.4805600	0.0825800	0.7768800	0.2799700	0.1779300	0.5186600	-0.1930800	0.1344200	0.3655300	0.4959000	-0.1736000	0.7399700	0.2911600	-0.2826100	0.5290400	-0.1725300	-0.2488800	0.7623200	-0.2167300	-0.3224700	0.6895100	-0.2239400	-0.3476700	0.4583000	-0.2281200	-0.2179400	0.7015100	-0.2333100	0.2410700	0.6647000	-0.2310000	0.2528900	0.5121300	-0.2226000	0.0936300
423	7.0333333	0.7858300	0.8902200	-0.0301300	0.8251800	0.8851300	0.1388500	1.0319200	0.7463800	0.1746000	1.3681300	0.7726000	0.0680400	0.8153000	0.9110100	-0.1954200	1.0521700	0.7575400	-0.2368600	1.3859400	0.7780600	-0.1055000	0.3629500	0.4542300	-0.0392600	0.3912900	0.4575800	0.0839100	0.7837300	0.2762800	0.1753500	0.5189400	-0.1960700	0.1338400	0.3644700	0.4715600	-0.1727000	0.7478800	0.2861100	-0.2783400	0.5288300	-0.1724800	-0.2490100	0.7615600	-0.2171900	-0.3223200	0.6813500	-0.2265700	-0.3511000	0.4504400	-0.2275300	-0.2214400	0.7103300	-0.2307700	0.2348000	0.6649400	-0.2341600	0.2520200	0.5216400	-0.2192500	0.0967100
424	7.0500000	0.7867000	0.8753800	-0.0294500	0.8322700	0.8713900	0.1348000	1.0228200	0.7150900	0.1838400	1.3629700	0.7530700	0.0599800	0.8164900	0.8803800	-0.1948000	1.0765900	0.7122900	-0.2473200	1.3840900	0.7555900	-0.1124400	0.3627800	0.4424700	-0.0474200	0.3913900	0.4415400	0.0832700	0.7779300	0.2673900	0.1864800	0.5186500	-0.1931100	0.1344000	0.3680000	0.4537300	-0.1734900	0.7482600	0.2861700	-0.2778500	0.5291200	-0.1724800	-0.2489000	0.7622400	-0.2166800	-0.3226500	0.6901700	-0.2234400	-0.3554100	0.4576200	-0.2317300	-0.2185500	0.7103800	-0.2310100	0.2352700	0.6652500	-0.2344000	0.2522000	0.5222100	-0.2193400	0.0967100
425	7.0666667	0.7952600	0.8425700	-0.0345100	0.8270200	0.8399900	0.1382900	1.0289700	0.6883300	0.1869400	1.3697000	0.7288300	0.0751400	0.8169200	0.8529000	-0.1953000	1.1210000	0.6950200	-0.2598700	1.3873900	0.7316300	-0.1062800	0.3629500	0.4346100	-0.0471200	0.3926500	0.4298300	0.0834000	0.7773000	0.2644500	0.1878500	0.5292800	-0.1886900	0.1376200	0.3663400	0.4457400	-0.1808900	0.7560800	0.2811400	-0.2810900	0.5289700	-0.1725300	-0.2490500	0.7615000	-0.2171800	-0.3224400	0.6906100	-0.2232300	-0.3549400	0.4584800	-0.2317700	-0.2188700	0.7098800	-0.2271600	0.2354800	0.6649800	-0.2341600	0.2519900	0.5216900	-0.2191600	0.0967700
426	7.0833333	0.7959900	0.8181300	-0.0336800	0.8232400	0.8163400	0.1316700	1.0128900	0.6654200	0.1870000	1.3432100	0.7160100	0.0586400	0.8267800	0.8237700	-0.1984600	1.1315800	0.6590000	-0.2569100	1.3859600	0.7086300	-0.1060200	0.3532400	0.4084400	-0.0427100	0.3837500	0.4028700	0.0877100	0.7780100	0.2642300	0.1870200	0.5293500	-0.1896600	0.1375300	0.3593600	0.4332700	-0.1770500	0.7572500	0.2700900	-0.2819500	0.5292600	-0.1726000	-0.2489000	0.7620300	-0.2168200	-0.3226700	0.6901800	-0.2235900	-0.3554800	0.4672900	-0.2321900	-0.2232000	0.7197200	-0.2305200	0.2387000	0.6651900	-0.2343700	0.2522100	0.5119400	-0.2256100	0.0943800
